<svg xmlns="http://www.w3.org/2000/svg" viewBox="0 0 837 208"><g transform="matrix(1, 0, 0, 1, 210, 138.125061)">
            <path d="M47.28,12.86V57.13H32.65V12.86H0V1.54H80V12.86Z" />
            <path d="M115,31.49,102.33,40V57.13H87.7V1.54h14.63V25.1l36.5-23.56h20.25l.23.31-33,22,35,33-.23.31H142Z" />
            <path d="M167.17,27V1.54H181.8V28.1c0,12.25,6.62,18.41,19.94,18.41s19.94-6.16,19.94-18.41V1.54h14.63V27c0,21.55-12.24,31-34.57,31S167.17,48.58,167.17,27Z" />
            <path d="M270.35,40.65c0-6.39,4-10.39,13.78-13.32-7.93-2.54-11.24-6.23-11.24-11.78C272.89,5.24,285.13,0,307.46,0S342,5.24,342,15.55c0,5.55-3.31,9.24-11.24,11.78,9.78,2.93,13.78,6.93,13.78,13.32,0,11.4-13.17,17.4-37.11,17.4S270.35,52.05,270.35,40.65Zm60.36-1.31c0-4.77-7.31-7-23.25-7s-23.26,2.23-23.26,7c0,4.93,7.32,7.17,23.26,7.17S330.71,44.27,330.71,39.34Zm-2.54-22.4c0-3.85-6.55-5.62-20.71-5.62s-20.71,1.77-20.71,5.62c0,4.08,6.54,5.93,20.71,5.93S328.17,21,328.17,16.94Z" />
            <path d="M355.66,53.51V41.42l.69-.15a70.79,70.79,0,0,0,27,5.39c13.47,0,22.25-3.93,25.1-11.24-5.16,2.38-14.09,4.08-25.25,4.08C361.36,39.5,350,33,350,20.4,350,6.93,364.36,0,387.23,0c25.18,0,36.88,8.55,36.88,26.87,0,20.17-15.94,31.18-41.19,31.18C373.06,58.05,363,56.59,355.66,53.51ZM409.25,21c0-6.39-7.7-9.09-23.25-9.09-15.17,0-22.18,2.55-22.18,8.7,0,6.32,6.55,8.94,22.41,8.94C402.32,29.57,409.25,27,409.25,21Z" />
            <path d="M430.27,70.76l4.39-13.63h-4.31V43.5h15.32V54.67L435.43,70.76Z" />
            <path d="M451.06,50.74V38l.39-.24c8.47,5.63,20.09,8.63,33.41,8.63,13.94,0,21.87-2.7,21.87-7.47,0-3.46-4.85-5.31-14.32-5.31H470.16v-11h22.48c7.93,0,11.86-1.54,11.86-4.62,0-3.78-8.09-6.39-19.87-6.39-12.78,0-22.94,2.77-31.72,8.7l-.31-.23V7.47C461.92,2.39,472.08,0,484.17,0c20.94,0,34.19,6.16,34.19,16,0,4.32-2.31,8.55-8.16,11.55,7.54,2.62,10.39,7.24,10.39,12.56,0,11.24-13.71,17.93-36.8,17.93C471.08,58.05,459.76,55.51,451.06,50.74Z" />
          </g>
        </svg>
