<svg xmlns="http://www.w3.org/2000/svg" viewBox="0 0 837 208"><g transform="matrix(1, 0, 0, 1, 210.065887, 138.125061)">
                <path d="m0,55.82v-12.17l.46-.23c4,2,7.62,2.85,11.78,2.85,10.62,0,15.17-5.62,15.17-16.63V1.62h14.63v26.87c0,18.94-9.01,29.64-29.03,29.64-6.54,0-10.55-1.16-13.01-2.31Z" /><path d="m81.7,31.57l-12.71,8.47v17.17h-14.63V1.62h14.63v23.56L105.49,1.62h20.25l.23.31-32.95,22.02,35.03,32.96-.23.31h-19.17l-26.95-25.64Z" /><path d="m134.98,1.62h14.63v44.27h50.36v11.32h-64.98V1.62Z" /><path d="m254.33,15.32l-23.18,9.39-.23-.15v-11.47l25.95-11.47h10.93v55.59h-13.47V15.32Z" /><path d="m276.27,29.1c0-18.25,15.17-29.03,38.57-29.03s38.57,10.78,38.57,29.03-15.17,29.03-38.57,29.03-38.57-10.78-38.57-29.03Zm63.29,0c0-11.4-9.7-17.48-24.71-17.48s-24.71,6.08-24.71,17.48,9.7,17.48,24.71,17.48,24.71-6.08,24.71-17.48Z" /><path d="m359.05,50.12v-13.09l.62-.23c9.01,5.78,20.17,9.47,35.88,9.47,13.86,0,21.71-2.85,21.71-8.47,0-5.31-6.93-8.08-19.94-8.08-8.7,0-16.32,1.31-26.41,5.93l-12.09-7.78,6.24-26.26h61.44v11.01h-50.89l-2.93,11.63c10.55-4.24,16.55-5.39,26.56-5.39,19.79,0,31.88,6.31,31.88,19.02,0,13.4-13.4,20.25-36.57,20.25-14.17,0-25.41-2.54-35.5-8.01Z" /><path d="m437.28,70.84l4.39-13.63h-4.31v-13.63h15.32v11.16l-10.24,16.09h-5.16Z" /><path d="m458.84,54.82c0-14.09,6.78-21.87,31.41-28.1,20.56-5.24,22.41-6.47,22.41-9.01,0-3.54-6.62-6.01-17.71-6.01-13.47,0-25.02,3.7-33.11,9.16l-.46-.23v-12.55c9.09-5.47,20.1-8.08,33.88-8.08,19.87,0,31.26,5.39,31.26,17.63,0,8.85-5.78,13.94-28.26,19.17-13.47,3.16-18.79,5.54-20.1,8.85h48.28v11.55h-67.6v-2.39Z" />
            </g>
        </svg>
