<svg xmlns="http://www.w3.org/2000/svg" viewBox="0 0 837 208"><g transform="matrix(1, 0, 0, 1, 210.065887, 138.125061)">
                <path d="m27.33,31.57l-12.7,8.47v17.17H0V1.62h14.63v23.56L51.13,1.62h20.25l.23.31-32.95,22.02,35.03,32.96-.23.31h-19.17l-26.95-25.64Z" /><path d="m94.48,40.27v16.94h-14.63V1.62h42.5c19.17,0,29.57,6.85,29.57,19.33s-10.24,19.33-29.18,19.33h-28.26Zm0-27.1v15.55h27.49c10.09,0,15.09-1.62,15.09-7.78s-5-7.78-15.09-7.78h-27.49Z" /><path d="m158.08,29.1C158.08,10.78,174.17.08,201.43.08s43.35,10.7,43.35,29.03-16.09,29.03-43.35,29.03-43.35-10.7-43.35-29.03Zm72.07,0c0-10.93-10.16-17.48-28.72-17.48s-28.72,6.54-28.72,17.48,10.16,17.48,28.72,17.48,28.72-6.54,28.72-17.48Z" /><path d="m280.66,53.59v-12.09l.69-.15c7.93,3.31,17.25,5.39,27.03,5.39,13.47,0,22.25-3.93,25.1-11.24-5.16,2.39-14.09,4.08-25.25,4.08-21.87,0-33.26-6.54-33.26-19.09,0-13.47,14.4-20.4,37.27-20.4,25.18,0,36.88,8.55,36.88,26.87,0,20.17-15.94,31.18-41.19,31.18-9.86,0-19.94-1.46-27.26-4.54Zm53.59-32.49c0-6.39-7.7-9.08-23.25-9.08s-22.17,2.54-22.17,8.7,6.54,8.93,22.41,8.93,23.02-2.54,23.02-8.55Z" /><path d="m400.7,12.7h-47.74V1.62h66.14v9.93c-20.94,15.17-29.03,26.95-32.03,45.66h-14.24c3.54-20.02,12.01-31.65,27.87-44.5Z" /><path d="m414.49,70.84l4.39-13.63h-4.31v-13.63h15.32v11.16l-10.24,16.09h-5.16Z" /><path d="m436.05,54.82c0-14.09,6.78-21.87,31.42-28.1,20.56-5.24,22.41-6.47,22.41-9.01,0-3.54-6.62-6.01-17.71-6.01-13.47,0-25.02,3.7-33.11,9.16l-.46-.23v-12.55c9.09-5.47,20.1-8.08,33.88-8.08,19.87,0,31.26,5.39,31.26,17.63,0,8.85-5.77,13.94-28.26,19.17-13.47,3.16-18.79,5.54-20.1,8.85h48.28v11.55h-67.6v-2.39Z" />
            </g>
        </svg>
