<svg xmlns="http://www.w3.org/2000/svg" viewBox="0 0 837 208"><g transform="matrix(1, 0, 0, 1, 210.065887, 138.125061)">
                <path d="m0,1.54h14.63v44.27h50.36v11.32H0V1.54Z" /><path d="m130.74,45.97h-39.27l-6.93,11.16h-15.71L104.26,1.54h15.09l33.65,55.59h-15.71l-6.54-11.16Zm-19.09-32.65l-13.24,21.33h25.72l-12.47-21.33Z" /><path d="m219.98,35.11h-46.2v22.02h-14.63V1.54h14.63v22.02h46.2V1.54h14.63v55.59h-14.63v-22.02Z" /><path d="m289.59,12.86v44.27h-14.63V12.86h-32.65V1.54h80v11.32h-32.72Z" /><path d="m330.02,1.54h14.63v55.59h-14.63V1.54Z" /><path d="m383.61,53.51v-12.09l.69-.15c7.93,3.31,17.25,5.39,27.03,5.39,13.47,0,22.25-3.93,25.1-11.24-5.16,2.39-14.09,4.08-25.25,4.08-21.87,0-33.26-6.54-33.26-19.09,0-13.47,14.4-20.4,37.27-20.4,25.18,0,36.88,8.55,36.88,26.87,0,20.17-15.94,31.18-41.19,31.18-9.86,0-19.94-1.46-27.26-4.54Zm53.59-32.49c0-6.39-7.7-9.08-23.25-9.08s-22.18,2.54-22.18,8.7,6.54,8.93,22.41,8.93,23.02-2.54,23.02-8.55Z" /><path d="m463.15,53.51v-12.09l.69-.15c7.93,3.31,17.25,5.39,27.03,5.39,13.47,0,22.25-3.93,25.1-11.24-5.16,2.39-14.09,4.08-25.25,4.08-21.87,0-33.26-6.54-33.26-19.09,0-13.47,14.4-20.4,37.27-20.4,25.18,0,36.88,8.55,36.88,26.87,0,20.17-15.94,31.18-41.19,31.18-9.86,0-19.94-1.46-27.26-4.54Zm53.59-32.49c0-6.39-7.7-9.08-23.25-9.08s-22.18,2.54-22.18,8.7,6.54,8.93,22.41,8.93,23.02-2.54,23.02-8.55Z" /><path d="m537.76,70.76l4.39-13.63h-4.31v-13.63h15.32v11.16l-10.24,16.09h-5.16Z" /><path d="m600.13,12.63h-47.74V1.54h66.14v9.93c-20.94,15.17-29.03,26.95-32.03,45.66h-14.24c3.54-20.02,12.01-31.65,27.87-44.5Z" />
            </g>
        </svg>
