<svg xmlns="http://www.w3.org/2000/svg" viewBox="0 0 837 208"><g transform="matrix(1, 0, 0, 1, 210.065887, 138.125061)">
            <path d="M47.28,12.86V57.13H32.65V12.86H0V1.54H80V12.86Z" />
            <path d="M124.66,39H102.33V57.13H87.7V1.54h42.81c18.63,0,29,6.62,29,18.79,0,9.62-6.47,15.78-18.33,17.86l20.1,18.63-.23.31H143.29ZM102.33,13.09v14.4h27.8c9.78,0,14.78-1.54,14.78-7.16s-5-7.24-14.78-7.24Z" />
            <path d="M170.55,1.54h68.07V12.86H185.18V23.79h50v11h-50v11h53.44V57.13H170.55Z" />
            <path d="M293,15.25l-23.17,9.39-.24-.16V13L295.52,1.54h10.94V57.13H293Z" />
            <path d="M314.93,29c0-18.25,15.16-29,38.57-29s38.58,10.78,38.58,29-15.17,29-38.58,29S314.93,47.28,314.93,29Zm63.29,0c0-11.4-9.7-17.48-24.72-17.48S328.79,17.63,328.79,29s9.7,17.48,24.71,17.48S378.22,40.42,378.22,29Z" />
            <path d="M398.24,30.88C398.24,11.09,412.71,0,438.59,0,448.21,0,458.3,1.54,466,4.62v12l-.7.16a72.64,72.64,0,0,0-27.25-5.39c-13.48,0-22,3.92-24.41,11.24,4.93-2.39,13.86-4.08,25-4.08,22.64,0,34.19,6.85,34.19,19.24,0,13.32-13.48,20.25-36.42,20.25C411.71,58.05,398.24,50,398.24,30.88ZM459,37.42c0-5.85-7.93-8.93-22.79-8.93-15.55,0-22.64,2.46-22.64,8.47s8.16,9.16,23.56,9.16C452.21,46.12,459,43.58,459,37.42Z" />
            <path d="M479,70.76l4.39-13.63h-4.31V43.5h15.32V54.67L484.17,70.76Z" />
            <path d="M501.34,40.65c0-6.39,4-10.39,13.78-13.32-7.93-2.54-11.24-6.23-11.24-11.78C503.88,5.24,516.12,0,538.45,0S573,5.24,573,15.55c0,5.55-3.31,9.24-11.24,11.78,9.78,2.93,13.78,6.93,13.78,13.32,0,11.4-13.16,17.4-37.11,17.4S501.34,52.05,501.34,40.65Zm60.37-1.3c0-4.78-7.32-7-23.26-7s-23.25,2.23-23.25,7,7.31,7.16,23.25,7.16S561.71,44.27,561.71,39.35Zm-2.54-22.41c0-3.85-6.55-5.62-20.72-5.62s-20.71,1.77-20.71,5.62c0,4.08,6.55,5.93,20.71,5.93S559.17,21,559.17,16.94Z" />
          </g>
        </svg>
