<svg xmlns="http://www.w3.org/2000/svg" viewBox="0 0 837 208"><g transform="matrix(1, 0, 0, 1, 210.065887, 138.125061)">
                <path d="m0,55.82v-12.17l.46-.23c4,2,7.62,2.85,11.78,2.85,10.62,0,15.17-5.62,15.17-16.63V1.62h14.63v26.87c0,18.94-9.01,29.64-29.03,29.64-6.54,0-10.55-1.16-13.01-2.31Z" /><path d="m68.99,17.71v39.5h-14.63V1.62h15.4l47.81,40.65V1.62h14.63v55.59h-16.94l-46.27-39.5Z" /><path d="m142.91,53.44v-12.32l.46-.23c10.39,3.93,21.4,5.7,36.65,5.7,16.32,0,23.25-2.62,23.25-6.39,0-11.17-60.67,3.54-60.67-22.79,0-11.4,12.55-17.4,36.57-17.4,12.01,0,23.02,1.46,33.19,4.47v11.7l-.46.15c-10.63-3.16-21.48-4.77-32.42-4.77-15.63,0-22.25,1.92-22.25,5.39,0,11.16,60.67-3.08,60.67,22.87,0,12.71-11.32,18.33-38.73,18.33-14.01,0-26.79-1.69-36.26-4.7Z" /><path d="m254.56,53.59v-12.09l.69-.15c7.93,3.31,17.25,5.39,27.03,5.39,13.47,0,22.25-3.93,25.1-11.24-5.16,2.39-14.09,4.08-25.25,4.08-21.87,0-33.26-6.54-33.26-19.09C248.86,7.01,263.26.08,286.13.08c25.18,0,36.88,8.55,36.88,26.87,0,20.17-15.94,31.18-41.19,31.18-9.86,0-19.94-1.46-27.26-4.54Zm53.59-32.49c0-6.39-7.7-9.08-23.25-9.08s-22.17,2.54-22.17,8.7,6.54,8.93,22.41,8.93,23.02-2.54,23.02-8.55Z" /><path d="m328.4,54.82c0-14.09,6.78-21.87,31.42-28.1,20.56-5.24,22.41-6.47,22.41-9.01,0-3.54-6.62-6.01-17.71-6.01-13.47,0-25.02,3.7-33.11,9.16l-.46-.23v-12.55c9.09-5.47,20.1-8.08,33.88-8.08,19.87,0,31.26,5.39,31.26,17.63,0,8.85-5.77,13.94-28.26,19.17-13.47,3.16-18.79,5.54-20.1,8.85h48.28v11.55h-67.6v-2.39Z" /><path d="m402.25,70.84l4.39-13.63h-4.31v-13.63h15.32v11.16l-10.24,16.09h-5.16Z" /><path d="m423.03,50.82v-12.7l.38-.23c8.47,5.62,20.1,8.62,33.42,8.62s21.87-2.7,21.87-7.47c0-3.46-4.85-5.31-14.32-5.31h-22.25v-11.01h22.48c7.93,0,11.86-1.54,11.86-4.62,0-3.77-8.08-6.39-19.86-6.39-12.78,0-22.95,2.77-31.72,8.7l-.31-.23V7.55c9.32-5.08,19.48-7.47,31.57-7.47,20.94,0,34.19,6.16,34.19,16.01,0,4.31-2.31,8.55-8.16,11.55,7.55,2.62,10.39,7.24,10.39,12.55,0,11.24-13.71,17.94-36.8,17.94-12.7,0-24.02-2.54-32.72-7.31Z" />
            </g>
        </svg>
