<svg xmlns="http://www.w3.org/2000/svg" viewBox="0 0 837 208"><g transform="matrix(1, 0, 0, 1, 210.065887, 138.125061)">
                <path d="m14.63,40.19v16.94H0V1.54h42.5c19.17,0,29.57,6.85,29.57,19.33s-10.24,19.33-29.18,19.33H14.63Zm0-27.1v15.55h27.49c10.09,0,15.09-1.62,15.09-7.78s-5-7.78-15.09-7.78H14.63Z" /><path d="m78.23,29.03C78.23,10.7,94.32,0,121.58,0s43.35,10.7,43.35,29.03-16.09,29.03-43.35,29.03-43.35-10.7-43.35-29.03Zm72.07,0c0-10.93-10.16-17.48-28.72-17.48s-28.72,6.54-28.72,17.48,10.16,17.48,28.72,17.48,28.72-6.54,28.72-17.48Z" /><path d="m211.13,39.04h-22.33v18.09h-14.63V1.54h42.81c18.63,0,29.03,6.62,29.03,18.79,0,9.62-6.47,15.78-18.33,17.86l20.1,18.63-.23.31h-17.79l-18.63-18.09Zm-22.33-25.95v14.4h27.79c9.78,0,14.78-1.54,14.78-7.16s-5-7.24-14.78-7.24h-27.79Z" /><path d="m257.03,1.54h14.63v55.59h-14.63V1.54Z" /><path d="m310.62,53.51v-12.09l.69-.15c7.93,3.31,17.25,5.39,27.03,5.39,13.47,0,22.25-3.93,25.1-11.24-5.16,2.39-14.09,4.08-25.25,4.08-21.87,0-33.26-6.54-33.26-19.09,0-13.47,14.4-20.4,37.27-20.4,25.18,0,36.88,8.55,36.88,26.87,0,20.17-15.94,31.18-41.19,31.18-9.86,0-19.94-1.46-27.26-4.54Zm53.59-32.49c0-6.39-7.7-9.08-23.25-9.08s-22.17,2.54-22.17,8.7,6.54,8.93,22.41,8.93,23.02-2.54,23.02-8.55Z" /><path d="m430.66,12.63h-47.74V1.54h66.14v9.93c-20.94,15.17-29.03,26.95-32.03,45.66h-14.24c3.54-20.02,12.01-31.65,27.87-44.5Z" /><path d="m444.44,70.76l4.39-13.63h-4.31v-13.63h15.32v11.16l-10.24,16.09h-5.16Z" /><path d="m466.77,30.88c0-19.79,14.47-30.88,40.35-30.88,9.62,0,19.71,1.54,27.41,4.62v12.01l-.69.15c-8.16-3.31-17.48-5.39-27.26-5.39-13.47,0-22.02,3.93-24.41,11.24,4.93-2.39,13.86-4.08,25.02-4.08,22.64,0,34.19,6.85,34.19,19.25,0,13.32-13.47,20.25-36.42,20.25-24.72,0-38.19-8.08-38.19-27.18Zm60.75,6.54c0-5.85-7.93-8.93-22.79-8.93s-22.64,2.46-22.64,8.47,8.16,9.16,23.56,9.16,21.87-2.54,21.87-8.7Z" />
            </g>
        </svg>
