<svg xmlns="http://www.w3.org/2000/svg" viewBox="0 0 837 208"><path d="M247.43,39H225.1V57.13H210.48V1.54h42.8c18.64,0,29,6.62,29,18.79,0,9.62-6.47,15.78-18.32,17.86l20.09,18.63-.23.31H266.07ZM225.1,13.09v14.4h27.8c9.78,0,14.78-1.54,14.78-7.16s-5-7.24-14.78-7.24Z" />
        <path d="M349.07,46H309.8l-6.93,11.16h-15.7L322.58,1.54h15.1l33.64,55.59h-15.7ZM330,13.32,316.73,34.65h25.72Z" />
        <path d="M377.49,1.54h39.42c25.1,0,40.19,10.24,40.19,27.79s-15.17,27.8-39.65,27.8h-40Zm14.63,11.55V45.58h24.1c17.09,0,26-4.77,26-16.25s-8.93-16.24-26-16.24Z" />
        <path d="M466.34,1.54H481V57.13H466.34Z" />
        <path d="M490.21,29c0-18.33,16.1-29,43.35-29s43.35,10.7,43.35,29-16.09,29-43.35,29S490.21,47.35,490.21,29Zm72.07,0c0-10.94-10.16-17.48-28.72-17.48S504.84,18.09,504.84,29,515,46.51,533.56,46.51,562.28,40,562.28,29Z" />
        <path d="M271.3,104.11H225.1v22H210.48V70.54H225.1v22h46.2v-22h14.63v55.59H271.3Z" />
        <path d="M298.25,70.54h68.07V81.86H312.88V92.79h50.05v11H312.88v11h53.44v11.32H298.25Z" />
        <path d="M377.1,70.54h14.63v44.27h50.36v11.32h-65Z" />
        <path d="M449.71,122.36V110l.47-.23c10.39,3.92,21.4,5.7,36.65,5.7,16.32,0,23.25-2.62,23.25-6.39,0-11.17-60.67,3.54-60.67-22.8,0-11.39,12.55-17.4,36.57-17.4a116.51,116.51,0,0,1,33.18,4.47v11.7l-.46.16a113.4,113.4,0,0,0-32.41-4.78c-15.63,0-22.26,1.93-22.26,5.39,0,11.17,60.68-3.08,60.68,22.87,0,12.7-11.32,18.32-38.73,18.32C472,127.05,459.18,125.36,449.71,122.36Z" />
        <path d="M534.72,70.54h14.63v55.59H534.72Z" />
        <path d="M576.3,86.63v39.5H561.67V70.54h15.4l47.81,40.65V70.54h14.63v55.59H622.57Z" />
        <path d="M679.17,100.49,666.47,109v17.17H651.84V70.54h14.63V94.1L703,70.54h20.25l.23.31-33,22,35,32.95-.23.31H706.12Z" />
        <path d="M731.68,70.54h14.63v55.59H731.68Z" />
        <path d="M0,1.54V195.46H193.92V1.54Zm97,178.4A81.44,81.44,0,1,1,178.4,98.5,81.44,81.44,0,0,1,97,179.94Z" />
      </svg>
