<svg xmlns="http://www.w3.org/2000/svg" viewBox="0 0 837 208"><g transform="matrix(1, 0, 0, 1, 210, 138.125061)">
            <path d="M0,29C0,10.7,16.09,0,43.35,0S86.7,10.7,86.7,29s-16.1,29-43.35,29S0,47.35,0,29Zm72.07,0c0-10.94-10.17-17.48-28.72-17.48S14.63,18.09,14.63,29,24.79,46.51,43.35,46.51,72.07,40,72.07,29Z" />
            <path d="M95.94,27V1.54h14.63V28.1c0,12.25,6.62,18.41,19.94,18.41s19.94-6.16,19.94-18.41V1.54h14.63V27c0,21.55-12.24,31-34.57,31S95.94,48.58,95.94,27Z" />
            <path d="M178.18,1.54H192.8V45.81h50.36V57.13h-65Z" />
            <path d="M248.94,27V1.54h14.63V28.1c0,12.25,6.62,18.41,19.94,18.41s19.94-6.16,19.94-18.41V1.54h14.63V27c0,21.55-12.24,31-34.57,31S248.94,48.58,248.94,27Z" />
            <path d="M357.05,53.51V41.42l.69-.15a70.79,70.79,0,0,0,27,5.39c13.47,0,22.25-3.93,25.1-11.24-5.16,2.38-14.09,4.08-25.26,4.08-21.87,0-33.26-6.54-33.26-19.1,0-13.47,14.4-20.4,37.27-20.4,25.17,0,36.88,8.55,36.88,26.87,0,20.17-15.94,31.18-41.2,31.18C374.45,58.05,364.36,56.59,357.05,53.51ZM410.64,21c0-6.39-7.7-9.08-23.26-9.08-15.17,0-22.17,2.54-22.17,8.69,0,6.32,6.54,8.94,22.4,8.94C403.71,29.57,410.64,27,410.64,21Z" />
            <path d="M431.66,29c0-18.25,15.17-29,38.57-29s38.58,10.78,38.58,29-15.17,29-38.58,29S431.66,47.28,431.66,29ZM495,29c0-11.4-9.7-17.48-24.72-17.48S445.52,17.63,445.52,29s9.7,17.48,24.71,17.48S495,40.42,495,29Z" />
            <path d="M515,70.76l4.39-13.63h-4.31V43.5h15.32V54.67L520.13,70.76Z" />
            <path d="M542.23,53.51V41.42l.69-.15a70.79,70.79,0,0,0,27,5.39c13.47,0,22.25-3.93,25.1-11.24C589.89,37.8,581,39.5,569.79,39.5c-21.86,0-33.26-6.54-33.26-19.1C536.53,6.93,550.93,0,573.8,0,599,0,610.68,8.55,610.68,26.87c0,20.17-15.94,31.18-41.19,31.18C559.63,58.05,549.54,56.59,542.23,53.51ZM595.82,21c0-6.39-7.7-9.08-23.25-9.08-15.17,0-22.18,2.54-22.18,8.69,0,6.32,6.55,8.94,22.41,8.94C588.89,29.57,595.82,27,595.82,21Z" />
          </g>
        </svg>
