<svg xmlns="http://www.w3.org/2000/svg" viewBox="0 0 837 208"><g transform="matrix(1, 0, 0, 1, 210, 138.125061)">
            <path d="M60.83,35.11H14.63v22H0V1.54H14.63v22h46.2v-22H75.46V57.13H60.83Z" />
            <path d="M115.11,31.49,102.41,40V57.13H87.78V1.54h14.63V25.1L138.9,1.54h20.25l.24.31-33,22,35,33-.23.31H142.06Z" />
            <path d="M167.63,1.54h14.63V57.13H167.63Z" />
            <path d="M216.29,40.65c0-6.39,4-10.39,13.78-13.32-7.93-2.54-11.24-6.23-11.24-11.78C218.83,5.24,231.07,0,253.4,0S288,5.24,288,15.55c0,5.55-3.31,9.24-11.24,11.78,9.78,2.93,13.78,6.93,13.78,13.32,0,11.4-13.16,17.4-37.11,17.4S216.29,52.05,216.29,40.65Zm60.37-1.31c0-4.77-7.32-7-23.26-7s-23.25,2.23-23.25,7c0,4.93,7.31,7.17,23.25,7.17S276.66,44.27,276.66,39.34Zm-2.55-22.4c0-3.85-6.54-5.62-20.71-5.62s-20.71,1.77-20.71,5.62c0,4.08,6.55,5.93,20.71,5.93S274.11,21,274.11,16.94Z" />
            <path d="M301.61,53.51V41.42l.69-.15a70.78,70.78,0,0,0,27,5.39c13.48,0,22.26-3.93,25.1-11.24-5.15,2.38-14.09,4.08-25.25,4.08-21.87,0-33.26-6.55-33.26-19.1,0-13.47,14.4-20.4,37.26-20.4,25.18,0,36.89,8.55,36.89,26.87,0,20.17-15.94,31.18-41.2,31.18C319,58.05,308.92,56.59,301.61,53.51ZM355.19,21c0-6.39-7.69-9.09-23.25-9.09-15.17,0-22.17,2.55-22.17,8.7,0,6.32,6.54,8.94,22.4,8.94C348.27,29.57,355.19,27,355.19,21Z" />
            <path d="M376.22,70.76l4.39-13.63H376.3V43.5h15.32V54.67L381.38,70.76Z" />
            <path d="M438.59,12.63H390.85V1.54H457v9.93c-20.95,15.17-29,27-32,45.66H410.71C414.25,37.11,422.72,25.49,438.59,12.63Z" />
          </g>
        </svg>
